<?xml version="1.0" encoding="utf-8"?>
<!-- Svg Vector Icons : http://www.onlinewebfonts.com/icon -->
<!DOCTYPE svg PUBLIC "-//W3C//DTD SVG 1.1//EN" "http://www.w3.org/Graphics/SVG/1.1/DTD/svg11.dtd">
<svg version="1.1" xmlns="http://www.w3.org/2000/svg" xmlns:xlink="http://www.w3.org/1999/xlink" x="0px" y="0px" viewBox="0 0 1000 1000" enable-background="new 0 0 1000 1000" xml:space="preserve">
<metadata> Svg Vector Icons : http://www.onlinewebfonts.com/icon </metadata>
<g><path fill="#ffffff" d="M124.5,815.7c-1.8,0-3.7-0.2-5.5-0.7c-11.7-3-18.8-15-15.8-26.7l28.1-109.1c3-11.7,15-18.8,26.7-15.8c11.7,3,18.8,15,15.8,26.7l-28.1,109.1C143.2,809.1,134.3,815.7,124.5,815.7L124.5,815.7z"/><path fill="#ffffff" d="M262.4,815.7c-1.8,0-3.7-0.2-5.5-0.7c-11.7-3-18.8-15-15.8-26.7l28.1-109.1c3-11.7,15-18.8,26.7-15.8c11.7,3,18.8,15,15.8,26.7l-28.1,109.1C281.1,809.1,272.2,815.7,262.4,815.7L262.4,815.7z"/><path fill="#ffffff" d="M400.3,815.7c-1.8,0-3.7-0.2-5.5-0.7c-11.7-3-18.8-15-15.8-26.7l28.1-109.1c3-11.7,15-18.8,26.7-15.8c11.7,3,18.8,15,15.8,26.7l-28.1,109.1C419,809.1,410.1,815.7,400.3,815.7L400.3,815.7z"/><path fill="#ffffff" d="M538.2,815.7c-1.8,0-3.7-0.2-5.5-0.7c-11.7-3-18.8-15-15.8-26.7L545,679.2c3-11.7,15-18.8,26.7-15.8c11.7,3,18.8,15,15.8,26.7l-28.1,109.1C556.9,809.1,548,815.7,538.2,815.7L538.2,815.7z"/><path fill="#ffffff" d="M676.1,815.7c-1.8,0-3.7-0.2-5.5-0.7c-11.7-3-18.8-15-15.8-26.7l28.1-109.1c3-11.7,15-18.8,26.7-15.8c11.7,3,18.8,15,15.8,26.7l-28.1,109.1C694.8,809.1,685.9,815.7,676.1,815.7L676.1,815.7z"/><path fill="#ffffff" d="M811.4,815.7c-1.8,0-3.7-0.2-5.5-0.7c-11.7-3-18.8-15-15.8-26.7l28.1-109.1c3-11.7,15-18.8,26.7-15.8c11.7,3,18.8,15,15.8,26.7l-28.1,109.1C830.1,809.1,821.2,815.7,811.4,815.7L811.4,815.7z"/><path fill="#ffffff" d="M806,584.7c-12.1,0-21.9-9.8-21.9-22c0-12.1,9.8-21.9,21.9-21.9c77.3,0,140.1-62.9,140.1-140.1c0-77.3-62.9-140.1-140.1-140.1H786c-12.1,0-22-9.8-22-22v-19.9c0-91.8-74.7-166.5-166.5-166.5c-27.9,0-55.5,7-79.8,20.3c-10.6,5.8-24,1.9-29.8-8.7c-5.8-10.6-1.9-24,8.7-29.8c30.7-16.8,65.6-25.7,100.9-25.7c115.3,0,209.3,93.3,210.4,208.4c100.6,1.1,182,83.2,182,184C990,502.2,907.4,584.7,806,584.7L806,584.7z"/><path fill="#ffffff" d="M610.8,641.2H194c-101.5,0-184-82.6-184-184c0-100.8,81.5-182.9,182-184c1.1-115.1,95-208.4,210.4-208.4c115.3,0,209.3,93.3,210.4,208.4c100.6,1.1,182,83.2,182,184C794.8,558.6,712.2,641.2,610.8,641.2L610.8,641.2z M194,317c-77.3,0-140.1,62.9-140.1,140.1c0,77.3,62.9,140.1,140.1,140.1h416.7c77.3,0,140.1-62.9,140.1-140.1c0-77.3-62.9-140.1-140.1-140.1h-20c-12.1,0-22-9.8-22-22v-19.9c0-91.8-74.7-166.5-166.5-166.5c-91.8,0-166.5,74.7-166.5,166.5v19.9c0,12.1-9.8,22-21.9,22H194L194,317z"/><path fill="#ffffff" d="M139.1,991.7c-3.8,0-7.7-0.6-11.6-1.8c-20.1-6.4-31.1-27.8-24.8-47.9l18.5-58.1c6.4-20.1,27.8-31.2,47.9-24.8c20.1,6.4,31.2,27.8,24.8,47.9l-18.5,58.1C170.3,981.3,155.3,991.7,139.1,991.7L139.1,991.7z"/><path fill="#ffffff" d="M295.5,991.7c-3.8,0-7.7-0.6-11.6-1.8c-20.1-6.4-31.1-27.8-24.8-47.9l18.5-58.1c6.4-20.1,27.8-31.2,47.9-24.8c20.1,6.4,31.2,27.8,24.8,47.9l-18.5,58.1C326.7,981.3,311.7,991.7,295.5,991.7L295.5,991.7z"/><path fill="#ffffff" d="M451.8,991.7c-3.8,0-7.7-0.6-11.6-1.8c-20.1-6.4-31.1-27.8-24.8-47.9l18.5-58.1c6.4-20.1,27.8-31.2,47.9-24.8C502,865.5,513,887,506.6,907l-18.5,58.1C483,981.3,468,991.7,451.8,991.7L451.8,991.7z"/><path fill="#ffffff" d="M608.9,991.7c-3.8,0-7.7-0.6-11.6-1.8c-20.1-6.4-31.1-27.8-24.8-47.9l18.5-58.1c6.4-20.1,27.8-31.2,47.9-24.8c20.1,6.4,31.2,27.8,24.8,47.9l-18.5,58.1C640,981.3,625,991.7,608.9,991.7L608.9,991.7z"/><path fill="#ffffff" d="M765.8,991.7c-3.8,0-7.7-0.6-11.6-1.8c-20.1-6.4-31.1-27.8-24.8-47.9l18.5-58.1c6.4-20.1,27.8-31.2,47.9-24.8C816,865.5,827,887,820.6,907l-18.5,58.1C797,981.3,782,991.7,765.8,991.7L765.8,991.7z"/></g>
</svg>